<svg xmlns="http://www.w3.org/2000/svg" xmlns:xlink="http://www.w3.org/1999/xlink" x="0px" y="0px" width="64px" height="64px" viewBox="0 0 64 64"><g stroke-width="2" transform="translate(0, 0)"><path data-cap="butt" data-color="color-2" fill="none" stroke="#ffffff" stroke-width="2" stroke-miterlimit="10" d="M16.3,40.7
	C14.8,38.1,14,35.2,14,32c0-9.9,8.1-18,18-18s18,8.1,18,18c0,3.2-0.8,6.1-2.2,8.7" stroke-linejoin="round" stroke-linecap="round"></path>
<line data-color="color-2" fill="none" stroke="#ffffff" stroke-width="2" stroke-linecap="round" stroke-miterlimit="10" x1="32" y1="2" x2="32" y2="6" stroke-linejoin="round"></line>
<line data-color="color-2" fill="none" stroke="#ffffff" stroke-width="2" stroke-linecap="round" stroke-miterlimit="10" x1="53.2" y1="10.8" x2="50.4" y2="13.6" stroke-linejoin="round"></line>
<line data-color="color-2" fill="none" stroke="#ffffff" stroke-width="2" stroke-linecap="round" stroke-miterlimit="10" x1="62" y1="32" x2="58" y2="32" stroke-linejoin="round"></line>
<line data-color="color-2" fill="none" stroke="#ffffff" stroke-width="2" stroke-linecap="round" stroke-miterlimit="10" x1="2" y1="32" x2="6" y2="32" stroke-linejoin="round"></line>
<line data-color="color-2" fill="none" stroke="#ffffff" stroke-width="2" stroke-linecap="round" stroke-miterlimit="10" x1="10.8" y1="10.8" x2="13.6" y2="13.6" stroke-linejoin="round"></line>
<path fill="none" stroke="#ffffff" stroke-width="2" stroke-linecap="round" stroke-miterlimit="10" d="M12.9,62
	C6.9,62,2,57.1,2,51.1c0-6,4.9-10.9,10.9-10.9c1.4,0,2.8,0.3,4,0.8c2.3-5.3,7.6-9,13.7-9c6.6,0,12.2,4.3,14.2,10.2
	c1.8-1.2,3.9-2,6.3-2c6,0,10.9,4.9,10.9,10.9c0,6-4.9,10.9-10.9,10.9H12.9z" stroke-linejoin="round"></path></g></svg>