<?xml version="1.0" encoding="UTF-8" standalone="no"?><!DOCTYPE svg PUBLIC "-//W3C//DTD SVG 1.1//EN" "http://www.w3.org/Graphics/SVG/1.1/DTD/svg11.dtd"><svg width="100%" height="100%" viewBox="0 0 64 64" version="1.1" xmlns="http://www.w3.org/2000/svg" xmlns:xlink="http://www.w3.org/1999/xlink" xml:space="preserve" xmlns:serif="http://www.serif.com/" style="fill-rule:evenodd;clip-rule:evenodd;stroke-linecap:round;stroke-linejoin:round;stroke-miterlimit:10;"><path d="M57.6,42.4c1.5,-2.4 2.4,-5.3 2.4,-8.4c0,-0.9 -0.1,-1.7 -0.2,-2.5c-1.2,0.3 -2.5,0.5 -3.8,0.5c-7.7,0 -13.9,-6.2 -14,-13.9c-7.3,0.9 -13.1,6.8 -13.9,14.1" style="fill:none;stroke:#fff;stroke-width:2px;"/><path d="M12.9,62c-6,0 -10.9,-4.9 -10.9,-10.9c0,-6 4.9,-10.9 10.9,-10.9c1.4,0 2.8,0.3 4,0.8c2.3,-5.3 7.6,-9 13.7,-9c6.6,0 12.2,4.3 14.2,10.2c1.8,-1.2 3.9,-2 6.3,-2c6,0 10.9,4.9 10.9,10.9c0,6 -4.9,10.9 -10.9,10.9l-38.2,0Z" style="fill:none;stroke:#fff;stroke-width:2px;"/></svg>