<svg xmlns="http://www.w3.org/2000/svg" xmlns:xlink="http://www.w3.org/1999/xlink" x="0px" y="0px" width="64px" height="64px" viewBox="0 0 64 64"><g stroke-width="2" transform="translate(0, 0)"><line data-color="color-2" fill="none" stroke="#ffffff" stroke-width="2" stroke-linecap="round" stroke-miterlimit="10" x1="32" y1="44" x2="32" y2="60" stroke-linejoin="round"></line>
<line data-color="color-2" fill="none" stroke="#ffffff" stroke-width="2" stroke-linecap="round" stroke-miterlimit="10" x1="25.1" y1="48" x2="38.9" y2="56" stroke-linejoin="round"></line>
<line data-color="color-2" fill="none" stroke="#ffffff" stroke-width="2" stroke-linecap="round" stroke-miterlimit="10" x1="25.1" y1="56" x2="38.9" y2="48" stroke-linejoin="round"></line>
<path data-cap="butt" data-color="color-2" fill="none" stroke="#ffffff" stroke-width="2" stroke-miterlimit="10" d="M30.1,22C31,16.3,36,12,42,12
	c6.6,0,12,5.4,12,12c0,2.3-0.6,4.4-1.7,6.2" stroke-linejoin="round" stroke-linecap="round"></path>
<path fill="none" stroke="#ffffff" stroke-width="2" stroke-linecap="round" stroke-miterlimit="10" d="M14,52h-1.1
	C6.9,52,2,47.1,2,41.1c0-6,4.9-10.9,10.9-10.9c1.4,0,2.8,0.3,4,0.8c2.3-5.3,7.6-9,13.7-9c6.6,0,12.2,4.3,14.2,10.2
	c1.8-1.2,3.9-2,6.3-2c6,0,10.9,4.9,10.9,10.9c0,6-4.9,10.9-10.9,10.9H50" stroke-linejoin="round"></path>
<line data-color="color-2" fill="none" stroke="#ffffff" stroke-width="2" stroke-linecap="round" stroke-miterlimit="10" x1="42" y1="4" x2="42" y2="6" stroke-linejoin="round"></line>
<line data-color="color-2" fill="none" stroke="#ffffff" stroke-width="2" stroke-linecap="round" stroke-miterlimit="10" x1="56.1" y1="9.9" x2="54.7" y2="11.3" stroke-linejoin="round"></line>
<line data-color="color-2" fill="none" stroke="#ffffff" stroke-width="2" stroke-linecap="round" stroke-miterlimit="10" x1="62" y1="24" x2="60" y2="24" stroke-linejoin="round"></line>
<line data-color="color-2" fill="none" stroke="#ffffff" stroke-width="2" stroke-linecap="round" stroke-miterlimit="10" x1="27.9" y1="9.9" x2="29.3" y2="11.3" stroke-linejoin="round"></line></g></svg>