<svg xmlns="http://www.w3.org/2000/svg" xmlns:xlink="http://www.w3.org/1999/xlink" x="0px" y="0px" width="64px" height="64px" viewBox="0 0 64 64"><g stroke-width="2" transform="translate(0, 0)"><line data-color="color-2" fill="none" stroke="#ffffff" stroke-width="2" stroke-linecap="round" stroke-miterlimit="10" x1="32" y1="42" x2="32" y2="58" stroke-linejoin="round"></line>
<line data-color="color-2" fill="none" stroke="#ffffff" stroke-width="2" stroke-linecap="round" stroke-miterlimit="10" x1="25.1" y1="46" x2="38.9" y2="54" stroke-linejoin="round"></line>
<line data-color="color-2" fill="none" stroke="#ffffff" stroke-width="2" stroke-linecap="round" stroke-miterlimit="10" x1="25.1" y1="54" x2="38.9" y2="46" stroke-linejoin="round"></line>
<path data-cap="butt" data-color="color-2" fill="none" stroke="#ffffff" stroke-width="2" stroke-miterlimit="10" d="M57.6,28.4c1.5-2.4,2.4-5.3,2.4-8.4
	c0-0.9-0.1-1.7-0.2-2.5C58.6,17.8,57.3,18,56,18c-7.7,0-13.9-6.2-14-13.9C34.7,5,28.9,10.9,28.1,18.2" stroke-linejoin="round" stroke-linecap="round"></path>
<path fill="none" stroke="#ffffff" stroke-width="2" stroke-linecap="round" stroke-miterlimit="10" d="M16,48h-3.1
	C6.9,48,2,43.1,2,37.1c0-6,4.9-10.9,10.9-10.9c1.4,0,2.8,0.3,4,0.8c2.3-5.3,7.6-9,13.7-9c6.6,0,12.2,4.3,14.2,10.2
	c1.8-1.2,3.9-2,6.3-2c6,0,10.9,4.9,10.9,10.9c0,6-4.9,10.9-10.9,10.9H48" stroke-linejoin="round"></path></g></svg>